<?xml version="1.0" standalone="no"?>
<!DOCTYPE svg PUBLIC "-//W3C//DTD SVG 20010904//EN"
 "http://www.w3.org/TR/2001/REC-SVG-20010904/DTD/svg10.dtd">
<svg version="1.0" xmlns="http://www.w3.org/2000/svg"
 width="600.000000pt" height="600.000000pt" viewBox="0 0 600.000000 600.000000"
 preserveAspectRatio="xMidYMid meet">
<metadata>
Created by potrace 1.11, written by Peter Selinger 2001-2013
</metadata>
<g transform="translate(0.000000,600.000000) scale(0.100000,-0.100000)"
fill="#000000" stroke="none">
<path d="M2290 5112 c0 -983 3 -939 -66 -1080 -49 -100 -152 -203 -254 -254
-141 -71 -96 -68 -1082 -68 l-888 0 0 -1588 c0 -1549 0 -1591 20 -1666 29
-113 73 -190 160 -277 53 -54 96 -86 147 -112 148 -73 -63 -68 2708 -65 l2490
3 55 21 c111 43 166 77 241 153 76 75 110 130 153 241 l21 55 3 2490 c3 2771
8 2560 -65 2708 -26 51 -58 94 -112 147 -87 87 -164 131 -277 160 -75 20 -117
20 -1666 20 l-1588 0 0 -888z"/>
</g>
</svg>
